<?xml version="1.0" standalone="no"?>
<!DOCTYPE svg PUBLIC "-//W3C//DTD SVG 20010904//EN"
 "http://www.w3.org/TR/2001/REC-SVG-20010904/DTD/svg10.dtd">
<svg version="1.0" xmlns="http://www.w3.org/2000/svg"
 width="256.000000pt" height="256.000000pt" viewBox="0 0 256.000000 256.000000"
 preserveAspectRatio="xMidYMid meet">
<metadata>
Created by potrace 1.14, written by Peter Selinger 2001-2017
</metadata>
<g transform="translate(0.000000,256.000000) scale(0.100000,-0.100000)"
fill="#000000" stroke="none">
<path d="M1140 2553 c-26 -3 -133 -23 -160 -28 -55 -12 -197 -63 -263 -96
-368 -181 -629 -533 -701 -944 -22 -128 -13 -363 19 -500 9 -39 18 -72 22 -85
3 -8 7 -19 8 -25 2 -5 12 -34 24 -62 161 -406 518 -704 945 -789 91 -18 337
-27 406 -14 25 4 63 11 85 14 182 28 411 137 575 275 290 244 447 575 455 956
5 225 -30 389 -126 586 -62 127 -166 272 -249 349 -208 190 -410 297 -652 346
-76 15 -328 26 -388 17z"/>
</g>
</svg>
